{
	"asset":{
		"generator":"Khronos glTF Blender I/O v4.2.57",
		"version":"2.0"
	},
	"scene":0,
	"scenes":[
		{
			"name":"Scene",
			"nodes":[
				0,
				1,
				2,
				3
			]
		}
	],
	"nodes":[
		{
			"mesh":0,
			"name":"Cone",
			"scale":[
				0.7350590825080872,
				0.7350590825080872,
				0.7350590825080872
			],
			"translation":[
				-1.3783223628997803,
				1.6787899732589722,
				3.904104232788086e-06
			]
		},
		{
			"mesh":1,
			"name":"Acrilyc",
			"scale":[
				0.6744269132614136,
				0.800000011920929,
				0.03500000014901161
			],
			"translation":[
				-1.4600907564163208,
				1.734252691268921,
				0
			]
		},
		{
			"mesh":2,
			"name":"Plane",
			"scale":[
				1.8550000190734863,
				1.8550000190734863,
				1.090561866760254
			],
			"translation":[
				-1.4845081567764282,
				1.4996931552886963,
				0
			]
		},
		{
			"mesh":3,
			"name":"Plane.001",
			"scale":[
				1.8550000190734863,
				1.8550000190734863,
				1.8550000190734863
			],
			"translation":[
				0.11732184886932373,
				1.8550000190734863,
				0
			]
		}
	],
	"materials":[
		{
			"doubleSided":true,
			"name":"Material.002",
			"pbrMetallicRoughness":{
				"baseColorFactor":[
					0.012270016595721245,
					0.012270016595721245,
					0.012270016595721245,
					1
				],
				"metallicFactor":0,
				"roughnessFactor":0.5
			}
		},
		{
			"doubleSided":true,
			"name":"Material.003"
		},
		{
			"doubleSided":true,
			"name":"Material.001",
			"pbrMetallicRoughness":{
				"baseColorTexture":{
					"index":0
				},
				"metallicFactor":0,
				"roughnessFactor":0.5
			}
		},
		{
			"doubleSided":true,
			"name":"Material.004",
			"pbrMetallicRoughness":{
				"baseColorTexture":{
					"index":1
				},
				"metallicFactor":0,
				"roughnessFactor":0.5
			}
		}
	],
	"meshes":[
		{
			"name":"Cone.001",
			"primitives":[
				{
					"attributes":{
						"POSITION":0,
						"NORMAL":1,
						"TEXCOORD_0":2
					},
					"indices":3,
					"material":0
				}
			]
		},
		{
			"name":"Cube.001",
			"primitives":[
				{
					"attributes":{
						"POSITION":4,
						"NORMAL":5,
						"TEXCOORD_0":6
					},
					"indices":7,
					"material":1
				}
			]
		},
		{
			"name":"Plane.001",
			"primitives":[
				{
					"attributes":{
						"POSITION":8,
						"NORMAL":9,
						"TEXCOORD_0":10
					},
					"indices":11,
					"material":2
				}
			]
		},
		{
			"name":"Plane.002",
			"primitives":[
				{
					"attributes":{
						"POSITION":12,
						"NORMAL":13,
						"TEXCOORD_0":14
					},
					"indices":15,
					"material":3
				}
			]
		}
	],
	"textures":[
		{
			"sampler":0,
			"source":0
		},
		{
			"sampler":0,
			"source":1
		}
	],
	"images":[
		{
			"mimeType":"image/png",
			"name":"Edgar sprite sheet",
			"uri":"Edgar%20sprite%20sheet.png"
		},
		{
			"mimeType":"image/png",
			"name":"Edgar sprite sheet.png",
			"uri":"Edgar%20sprite%20sheet_png.png"
		}
	],
	"accessors":[
		{
			"bufferView":0,
			"componentType":5126,
			"count":64,
			"max":[
				1.005591869354248,
				-0.9816201329231262,
				1.1141105890274048
			],
			"min":[
				-1.2226293087005615,
				-1.1723499298095703,
				-1.1141105890274048
			],
			"type":"VEC3"
		},
		{
			"bufferView":1,
			"componentType":5126,
			"count":64,
			"type":"VEC3"
		},
		{
			"bufferView":2,
			"componentType":5126,
			"count":64,
			"type":"VEC2"
		},
		{
			"bufferView":3,
			"componentType":5123,
			"count":372,
			"type":"SCALAR"
		},
		{
			"bufferView":4,
			"componentType":5126,
			"count":24,
			"max":[
				1,
				1,
				1
			],
			"min":[
				-1,
				-1,
				-1
			],
			"type":"VEC3"
		},
		{
			"bufferView":5,
			"componentType":5126,
			"count":24,
			"type":"VEC3"
		},
		{
			"bufferView":6,
			"componentType":5126,
			"count":24,
			"type":"VEC2"
		},
		{
			"bufferView":7,
			"componentType":5123,
			"count":36,
			"type":"SCALAR"
		},
		{
			"bufferView":8,
			"componentType":5126,
			"count":1160,
			"max":[
				0.11819475889205933,
				0.25707489252090454,
				0.03117658942937851
			],
			"min":[
				-0.131350576877594,
				-0.2922327518463135,
				-0.031176593154668808
			],
			"type":"VEC3"
		},
		{
			"bufferView":9,
			"componentType":5126,
			"count":1160,
			"type":"VEC3"
		},
		{
			"bufferView":10,
			"componentType":5126,
			"count":1160,
			"type":"VEC2"
		},
		{
			"bufferView":11,
			"componentType":5123,
			"count":4644,
			"type":"SCALAR"
		},
		{
			"bufferView":12,
			"componentType":5126,
			"count":4,
			"max":[
				-0.1187739372253418,
				1,
				4.371138473402425e-08
			],
			"min":[
				-0.4263336956501007,
				0.34246575832366943,
				1.496965396086125e-08
			],
			"type":"VEC3"
		},
		{
			"bufferView":13,
			"componentType":5126,
			"count":4,
			"type":"VEC3"
		},
		{
			"bufferView":14,
			"componentType":5126,
			"count":4,
			"type":"VEC2"
		},
		{
			"bufferView":15,
			"componentType":5123,
			"count":6,
			"type":"SCALAR"
		}
	],
	"bufferViews":[
		{
			"buffer":0,
			"byteLength":768,
			"byteOffset":0,
			"target":34962
		},
		{
			"buffer":0,
			"byteLength":768,
			"byteOffset":768,
			"target":34962
		},
		{
			"buffer":0,
			"byteLength":512,
			"byteOffset":1536,
			"target":34962
		},
		{
			"buffer":0,
			"byteLength":744,
			"byteOffset":2048,
			"target":34963
		},
		{
			"buffer":0,
			"byteLength":288,
			"byteOffset":2792,
			"target":34962
		},
		{
			"buffer":0,
			"byteLength":288,
			"byteOffset":3080,
			"target":34962
		},
		{
			"buffer":0,
			"byteLength":192,
			"byteOffset":3368,
			"target":34962
		},
		{
			"buffer":0,
			"byteLength":72,
			"byteOffset":3560,
			"target":34963
		},
		{
			"buffer":0,
			"byteLength":13920,
			"byteOffset":3632,
			"target":34962
		},
		{
			"buffer":0,
			"byteLength":13920,
			"byteOffset":17552,
			"target":34962
		},
		{
			"buffer":0,
			"byteLength":9280,
			"byteOffset":31472,
			"target":34962
		},
		{
			"buffer":0,
			"byteLength":9288,
			"byteOffset":40752,
			"target":34963
		},
		{
			"buffer":0,
			"byteLength":48,
			"byteOffset":50040,
			"target":34962
		},
		{
			"buffer":0,
			"byteLength":48,
			"byteOffset":50088,
			"target":34962
		},
		{
			"buffer":0,
			"byteLength":32,
			"byteOffset":50136,
			"target":34962
		},
		{
			"buffer":0,
			"byteLength":12,
			"byteOffset":50168,
			"target":34963
		}
	],
	"samplers":[
		{
			"magFilter":9729,
			"minFilter":9987
		}
	],
	"buffers":[
		{
			"byteLength":50180,
			"uri":"Edgar%20Idle%201.bin"
		}
	]
}
